<?xml version="1.0" encoding="utf-8"?>
<!-- Generator: Adobe Illustrator 22.1.0, SVG Export Plug-In . SVG Version: 6.00 Build 0)  -->
<svg version="1.1" id="Layer_1" xmlns="http://www.w3.org/2000/svg" xmlns:xlink="http://www.w3.org/1999/xlink" x="0px" y="0px"
	 viewBox="0 0 792 612" style="enable-background:new 0 0 792 612;" xml:space="preserve">
<style type="text/css">
	.st0{fill-rule:evenodd;clip-rule:evenodd;fill:#4073B5;}
	.st1{fill-rule:evenodd;clip-rule:evenodd;fill:#F7B600;}
</style>
<path class="st0" d="M389.9,186.9c14.3,76,23.2,114.6,23.2,114.6L464,200.1l6.7-13.3c0.2-0.2,56.3,0,58.4,0
	c-38.9,75.7-68.2,137.2-96.8,193.3c-17.5,34.2-26.7,54.1-32.4,64.5c-6.3,11.8-2.4,9.8-13.9,10c-0.9,0-2,0-3.1,0
	c-15.5,0.2-31.1-0.1-46.6,0.1c3.9-7.9,13.1-26.5,21.1-42l20.6-41.1c0,0-15.6-60.8-47.1-184.7L389.9,186.9"/>
<path class="st0" d="M719.4,195.1c54.4-0.2,32.9,0.2,44.6-0.1c2.8-0.1,3,0.1,3.6,0c3.2-0.4,8.2,3.8,7.3,7.9c-0.3,1.5,0-0.3-0.2,1.1
	c-2.7,17.8-2.9,23.3-3.5,27.2c-0.2,3.4-3.3,7.2-10.7,7c-41-1.9-43.8,7.8-44.9,24.8l-8.7,132.5H655c2-22.9,6.6-119.2,9.2-149.6
	C664.9,228.1,672.1,195,719.4,195.1"/>
<path class="st0" d="M575.8,395.6l52,0.2c0.5-8.3,1.4-21.8,2.4-38c3.6-56.4,9.2-145.9,10.3-162.4c-39.9-0.3-53.5-2.9-53.6,25
	c0,0.3-0.1,0.6-0.1,1C585,241.6,577.4,372.4,575.8,395.6"/>
<path class="st0" d="M618.2,105.1c17.3,0,31.3,14,31.3,31.3c0,17.3-14,31.3-31.3,31.3c-17.3,0-31.3-14-31.3-31.3
	C586.9,119.1,600.9,105.1,618.2,105.1"/>
<path class="st1" d="M512.3,339.6c15.5,0,28,12.5,28,28c0,15.5-12.5,28-28,28s-28-12.5-28-28C484.2,352.1,496.8,339.6,512.3,339.6"
	/>
<path class="st0" d="M96.4,249.8c45.6,5.5,66.5-8,74-29c8.7-24.4,1.1-51.4-27.1-49.8C104.4,173.3,100.1,221.8,96.4,249.8
	 M78.1,394.8c-34.8,0-51.6,0-51.6,0c12.1-100.7,19.1-157.1,19.1-157.1C56.8,111.8,163,99,206.9,147.5
	c33.9,37.4,20.3,107.1-21.1,135.4c-23.8,16.2-56.8,22-95.5,18.7L78.1,394.8z"/>
<path class="st0" d="M253.4,344c8.6-7.8,16.8-20.9,21.2-37.6c-5.2,0.7-10.4,1.3-15.6,2.1c-33.6,5.4-51.4,17.3-49.6,30.8
	C212.3,360,240.8,355.8,253.4,344 M279.2,270.6c-11.1,1.7-16.6,2.5-16.6,2.5L279.2,270.6z M262.6,273.1
	c-29.5,4.6-98,12.7-102.8,59.4c-9.6,93.3,175.7,90.6,175.7-62.7c0-51.8-38.2-93.2-95.8-82.2l-0.6,31.6c30.3,6.2,40,22.9,40.1,51.5"
	/>
</svg>
